<svg width="155" height="27" viewBox="0 0 155 27" fill="none" xmlns="http://www.w3.org/2000/svg">
<path d="M11.8364 1.11719H15.9893V18.395C15.9893 20.2977 15.6304 21.8301 14.9126 22.9922C14.2062 24.1543 13.2492 25.0031 12.0415 25.5386C10.8452 26.0741 9.51221 26.3418 8.04248 26.3418C6.51579 26.3418 5.1543 26.0741 3.95801 25.5386C2.76172 25.0031 1.82178 24.1543 1.13818 22.9922C0.45459 21.8301 0.112793 20.2977 0.112793 18.395V1.11719H4.24854V18.395C4.24854 19.5799 4.39665 20.4971 4.69287 21.1465C5.00049 21.7959 5.43343 22.2459 5.9917 22.4966C6.56136 22.7472 7.24495 22.8726 8.04248 22.8726C8.84001 22.8726 9.5179 22.7472 10.0762 22.4966C10.6458 22.2459 11.0788 21.7959 11.375 21.1465C11.6826 20.4971 11.8364 19.5799 11.8364 18.395V1.11719ZM26.3799 26H22.0562L22.0903 22.5308H26.3799C27.7129 22.5308 28.7782 22.2858 29.5757 21.7959C30.3732 21.2946 30.9486 20.5312 31.3018 19.5059C31.6549 18.4805 31.8315 17.1702 31.8315 15.5752V11.5249C31.8315 10.2944 31.729 9.24626 31.5239 8.38037C31.3302 7.50309 31.0226 6.79102 30.6011 6.24414C30.1909 5.68587 29.6497 5.27572 28.9775 5.01367C28.3053 4.74023 27.4964 4.60352 26.5508 4.60352H21.9707V1.11719H26.5508C27.9749 1.11719 29.2624 1.34505 30.4131 1.80078C31.5638 2.25651 32.5493 2.92871 33.3696 3.81738C34.2013 4.69466 34.8394 5.78271 35.2837 7.08154C35.728 8.38037 35.9502 9.87288 35.9502 11.5591V15.5752C35.9502 17.2614 35.728 18.7539 35.2837 20.0527C34.8394 21.3402 34.2013 22.4282 33.3696 23.3169C32.5379 24.1942 31.5353 24.8607 30.3618 25.3164C29.1883 25.7721 27.861 26 26.3799 26ZM24.4316 1.11719V26H20.2788V1.11719H24.4316ZM54.0312 22.5308V26H43.2305V22.5308H54.0312ZM44.3242 1.11719V26H40.1714V1.11719H44.3242ZM52.5786 11.4736V14.8916H43.2305V11.4736H52.5786ZM53.9287 1.11719V4.60352H43.2305V1.11719H53.9287ZM57.4834 1.11719H65.0029C66.6436 1.11719 68.0335 1.40202 69.1729 1.97168C70.3122 2.54134 71.1781 3.38444 71.7705 4.50098C72.3743 5.60612 72.6763 6.979 72.6763 8.61963C72.6763 9.86149 72.4883 10.9552 72.1123 11.9009C71.7477 12.8465 71.2179 13.644 70.5229 14.2935C69.828 14.9315 68.9906 15.4271 68.0107 15.7803L66.7974 16.4468H60.4399L60.4229 12.9604H64.9004C65.7093 12.9604 66.3815 12.7839 66.917 12.4307C67.4525 12.0775 67.8512 11.5876 68.1133 10.9609C68.3867 10.3343 68.5234 9.62223 68.5234 8.82471C68.5234 7.97021 68.4038 7.22965 68.1646 6.60303C67.9253 5.96501 67.5493 5.4751 67.0366 5.1333C66.5239 4.78011 65.846 4.60352 65.0029 4.60352H61.6362V26H57.4834V1.11719ZM69.0703 26L64.3364 14.8232L68.6602 14.8062L73.5137 25.7778V26H69.0703ZM98.499 21.8643V26H87.6812V21.8643H98.499ZM89.2363 1.11719V26H84.229V1.11719H89.2363ZM97.0464 11.2002V15.2163H87.6812V11.2002H97.0464ZM98.4648 1.11719V5.27002H87.6812V1.11719H98.4648ZM110.428 5.56055L105.079 26H99.7979L107.574 1.11719H110.872L110.428 5.56055ZM114.649 26L109.266 5.56055L108.77 1.11719H112.12L119.964 26H114.649ZM114.837 16.7202V20.873H103.609V16.7202H114.837ZM130.201 1.11719V26H125.228V1.11719H130.201ZM136.387 1.11719V5.27002H119.161V1.11719H136.387ZM149.546 19.4546C149.546 19.0103 149.507 18.6058 149.427 18.2412C149.347 17.8766 149.176 17.5405 148.914 17.2329C148.663 16.9253 148.293 16.6177 147.803 16.3101C147.325 16.0024 146.698 15.6834 145.923 15.353C145 14.9657 144.106 14.5555 143.24 14.1226C142.374 13.6782 141.594 13.1655 140.899 12.5845C140.204 12.0034 139.651 11.3198 139.241 10.5337C138.842 9.73617 138.643 8.80192 138.643 7.73096C138.643 6.68278 138.831 5.73145 139.207 4.87695C139.594 4.02246 140.141 3.29329 140.848 2.68945C141.554 2.07422 142.38 1.6014 143.326 1.271C144.283 0.940592 145.348 0.775391 146.521 0.775391C148.117 0.775391 149.495 1.10579 150.657 1.7666C151.831 2.42741 152.736 3.33317 153.375 4.48389C154.024 5.6346 154.349 6.95622 154.349 8.44873H149.358C149.358 7.74235 149.256 7.12142 149.051 6.58594C148.857 6.03906 148.544 5.61182 148.111 5.3042C147.678 4.99658 147.12 4.84277 146.436 4.84277C145.798 4.84277 145.268 4.9738 144.847 5.23584C144.437 5.48649 144.129 5.83398 143.924 6.27832C143.73 6.71126 143.633 7.20117 143.633 7.74805C143.633 8.1582 143.73 8.52848 143.924 8.85889C144.129 9.1779 144.408 9.46842 144.761 9.73047C145.114 9.98112 145.53 10.2261 146.009 10.4653C146.499 10.7046 147.034 10.9382 147.615 11.166C148.743 11.6104 149.74 12.1003 150.606 12.6357C151.472 13.1598 152.195 13.7523 152.776 14.4131C153.357 15.0625 153.796 15.7974 154.092 16.6177C154.389 17.438 154.537 18.3722 154.537 19.4204C154.537 20.4572 154.354 21.4028 153.99 22.2573C153.637 23.1004 153.118 23.8296 152.435 24.4448C151.751 25.0487 150.925 25.5158 149.957 25.8462C149 26.1766 147.929 26.3418 146.744 26.3418C145.593 26.3418 144.505 26.1823 143.479 25.8633C142.454 25.5329 141.548 25.0373 140.762 24.3765C139.987 23.7043 139.378 22.8555 138.934 21.8301C138.489 20.7933 138.267 19.5685 138.267 18.1558H143.274C143.274 18.9077 143.348 19.5514 143.497 20.0869C143.645 20.611 143.873 21.0326 144.18 21.3516C144.488 21.6592 144.864 21.8927 145.308 22.0522C145.764 22.2004 146.282 22.2744 146.863 22.2744C147.524 22.2744 148.048 22.1491 148.436 21.8984C148.834 21.6478 149.119 21.3117 149.29 20.8901C149.461 20.4686 149.546 19.9901 149.546 19.4546Z" fill="black"/>
</svg>
